# xmcd CD database file
# Copyright (C) 1993-1998 Ti Kan
#
# Track frame offsets:
# 150
# 14177
# 23882
# 31255
# 43095
# 52887
# 65600
# 78600
# 89610
# 98300
# 107160
# 115635
# 126905
# 138305
#
# Disc length: 1978 seconds
#
# Revision: 0
# Processed by: cddbd v1.4b41PL1 Copyright (c) Steve Scherf et al.
# Submitted via: inCDius 1.1b9
#
DISCID=b807b80e
DTITLE=Various Artist - Fire On the Fiddle - Volume One
DYEAR=1900
DGENRE=
TTITLE0=Hornpipe Medley
TTITLE1=Give the Fiddler a Dram
TTITLE2=Lee Highway Blues
TTITLE3=Twilight Waltz
TTITLE4=Ramona's Choice
TTITLE5=Limehouse Blues
TTITLE6=Wabash Cannonball
TTITLE7=Fat Boy Rag
TTITLE8=Leather Britches
TTITLE9=Peacock Rag
TTITLE10=Dusty Miller
TTITLE11=Rock Jenny Rock
TTITLE12=Black and White Rag
TTITLE13=McMichen's Reel
EXTD=
EXTT0=
EXTT1=
EXTT2=
EXTT3=
EXTT4=
EXTT5=
EXTT6=
EXTT7=
EXTT8=
EXTT9=
EXTT10=
EXTT11=
EXTT12=
EXTT13=
PLAYORDER=
